<svg width="33" height="33" viewBox="0 0 33 33" fill="none" xmlns="http://www.w3.org/2000/svg">
<path d="M32.9896 16.0053C32.9889 19.1704 32.0498 22.2643 30.2912 24.8955C28.5326 27.5268 26.0334 29.5772 23.1098 30.7875C20.1861 31.9978 16.9693 32.3135 13.8663 31.6949C10.7632 31.0762 7.91329 29.5508 5.67692 27.3117C3.44055 25.0726 1.91822 22.2204 1.30247 19.1158C0.686726 16.0111 1.00522 12.7936 2.21768 9.87001C3.43014 6.94646 5.4821 4.44826 8.11402 2.6914C10.7459 0.934529 13.8396 -0.00208978 17.0037 3.5011e-06C19.1047 -0.000924639 21.1854 0.412484 23.1266 1.21658C25.0679 2.02068 26.8316 3.1997 28.317 4.68621C29.8023 6.17271 30.9802 7.93754 31.7831 9.87977C32.5861 11.822 32.9985 13.9035 32.9966 16.0053H32.9896ZM18.8304 5.5597C18.2309 5.50326 17.6173 5.47856 16.9966 5.47856C16.3759 5.47856 15.7658 5.50326 15.1663 5.5597V14.0933H18.8304V5.5597ZM27.2942 10.5338C25.9588 10.0949 24.5942 9.7507 23.2104 9.5037V16.672C23.2104 21.8296 21.0239 24.5424 16.9931 24.5424C12.9622 24.5424 10.7828 21.8296 10.7828 16.672V9.5037C9.39803 9.75113 8.03226 10.0953 6.69556 10.5338V16.7108C6.67024 18.0799 6.91792 19.4402 7.42414 20.7124C7.93035 21.9845 8.68495 23.143 9.64384 24.1201C10.6027 25.0973 11.7467 25.8734 13.0088 26.4033C14.271 26.9331 15.6261 27.206 16.9949 27.206C18.3637 27.206 19.7187 26.9331 20.9809 26.4033C22.2431 25.8734 23.387 25.0973 24.3459 24.1201C25.3048 23.143 26.0594 21.9845 26.5656 20.7124C27.0718 19.4402 27.3195 18.0799 27.2942 16.7108V10.5338Z" fill="#7000FF"/>
</svg>
