<svg width="22" height="26" viewBox="0 0 22 26" fill="none" xmlns="http://www.w3.org/2000/svg">
<g filter="url(#filter0_d_1_37)">
<path d="M15.4531 2.14453C14.2461 2.14453 13.2656 3.125 13.2656 4.33203C13.2656 5.31055 13.9121 6.14062 14.7988 6.41992V8.29297L7.25 10.7656V5.21289C8.11328 4.91992 8.73438 4.10156 8.73438 3.14062C8.73438 1.93359 7.75391 0.953125 6.54688 0.953125C5.33984 0.953125 4.35938 1.93359 4.35938 3.14062C4.35938 4.10156 4.98047 4.91797 5.84375 5.21289V12.7891C4.98047 13.082 4.35938 13.9004 4.35938 14.8613C4.35938 16.0684 5.33984 17.0488 6.54688 17.0488C7.75391 17.0488 8.73438 16.0684 8.73438 14.8613C8.73438 13.9004 8.11328 13.084 7.25 12.7891V12.2461L15.5215 9.53711C15.7201 9.47253 15.8931 9.34659 16.0156 9.17742C16.1381 9.00825 16.2038 8.80457 16.2031 8.5957V6.38672C17.041 6.07813 17.6406 5.27344 17.6406 4.33203C17.6406 3.125 16.6602 2.14453 15.4531 2.14453ZM5.60938 3.14062C5.61438 2.8953 5.71536 2.66171 5.89063 2.48998C6.0659 2.31825 6.3015 2.22207 6.54688 2.22207C6.79225 2.22207 7.02785 2.31825 7.20312 2.48998C7.37839 2.66171 7.47937 2.8953 7.48438 3.14062C7.47937 3.38595 7.37839 3.61954 7.20312 3.79127C7.02785 3.963 6.79225 4.05918 6.54688 4.05918C6.3015 4.05918 6.0659 3.963 5.89063 3.79127C5.71536 3.61954 5.61438 3.38595 5.60938 3.14062V3.14062ZM7.48438 14.8594C7.47937 15.1047 7.37839 15.3383 7.20312 15.51C7.02785 15.6817 6.79225 15.7779 6.54688 15.7779C6.3015 15.7779 6.0659 15.6817 5.89063 15.51C5.71536 15.3383 5.61438 15.1047 5.60938 14.8594C5.61438 14.614 5.71536 14.3805 5.89063 14.2087C6.0659 14.037 6.3015 13.9408 6.54688 13.9408C6.79225 13.9408 7.02785 14.037 7.20312 14.2087C7.37839 14.3805 7.47937 14.614 7.48438 14.8594ZM15.4531 5.26953C15.2078 5.26452 14.9742 5.16355 14.8025 4.98828C14.6308 4.81301 14.5346 4.57741 14.5346 4.33203C14.5346 4.08665 14.6308 3.85105 14.8025 3.67578C14.9742 3.50051 15.2078 3.39954 15.4531 3.39453C15.6985 3.39954 15.932 3.50051 16.1038 3.67578C16.2755 3.85105 16.3717 4.08665 16.3717 4.33203C16.3717 4.57741 16.2755 4.81301 16.1038 4.98828C15.932 5.16355 15.6985 5.26452 15.4531 5.26953V5.26953Z" fill="black"/>
</g>
<defs>
<filter id="filter0_d_1_37" x="0.359375" y="0.953125" width="21.2812" height="24.0957" filterUnits="userSpaceOnUse" color-interpolation-filters="sRGB">
<feFlood flood-opacity="0" result="BackgroundImageFix"/>
<feColorMatrix in="SourceAlpha" type="matrix" values="0 0 0 0 0 0 0 0 0 0 0 0 0 0 0 0 0 0 127 0" result="hardAlpha"/>
<feOffset dy="4"/>
<feGaussianBlur stdDeviation="2"/>
<feComposite in2="hardAlpha" operator="out"/>
<feColorMatrix type="matrix" values="0 0 0 0 0 0 0 0 0 0 0 0 0 0 0 0 0 0 0.25 0"/>
<feBlend mode="normal" in2="BackgroundImageFix" result="effect1_dropShadow_1_37"/>
<feBlend mode="normal" in="SourceGraphic" in2="effect1_dropShadow_1_37" result="shape"/>
</filter>
</defs>
</svg>
