<svg width="20" height="16" viewBox="0 0 20 16" fill="none" xmlns="http://www.w3.org/2000/svg">
<path d="M19.5308 4.875H17.1922L16.5422 3.25C15.8742 1.5793 14.2801 0.5 12.4804 0.5H7.51951C5.72029 0.5 4.12576 1.5793 3.4574 3.25L2.8074 4.875H0.469121C0.164043 4.875 -0.0597856 5.16172 0.0144331 5.45742L0.248808 6.39492C0.300761 6.60352 0.488261 6.75 0.703496 6.75H1.48748C0.962871 7.2082 0.62498 7.87422 0.62498 8.625V10.5C0.62498 11.1297 0.865605 11.698 1.24998 12.1379V14.25C1.24998 14.9402 1.80975 15.5 2.49998 15.5H3.74998C4.44021 15.5 4.99998 14.9402 4.99998 14.25V13H15V14.25C15 14.9402 15.5597 15.5 16.25 15.5H17.5C18.1902 15.5 18.75 14.9402 18.75 14.25V12.1379C19.1344 11.6984 19.375 11.1301 19.375 10.5V8.625C19.375 7.87422 19.0371 7.2082 18.5129 6.75H19.2969C19.5121 6.75 19.6996 6.60352 19.7515 6.39492L19.9859 5.45742C20.0597 5.16172 19.8359 4.875 19.5308 4.875ZM5.7785 4.17852C6.06326 3.4668 6.75271 3 7.51951 3H12.4804C13.2472 3 13.9367 3.4668 14.2215 4.17852L15 6.125H4.99998L5.7785 4.17852ZM3.74998 10.4922C2.99998 10.4922 2.49998 9.99375 2.49998 9.24609C2.49998 8.49844 2.99998 8 3.74998 8C4.49998 8 5.62498 9.12148 5.62498 9.86914C5.62498 10.6168 4.49998 10.4922 3.74998 10.4922ZM16.25 10.4922C15.5 10.4922 14.375 10.6168 14.375 9.86914C14.375 9.12148 15.5 8 16.25 8C17 8 17.5 8.49844 17.5 9.24609C17.5 9.99375 17 10.4922 16.25 10.4922V10.4922Z" fill="black"/>
</svg>
