<svg width="20" height="20" viewBox="0 0 20 20" fill="none" xmlns="http://www.w3.org/2000/svg">
<path d="M15 5.96667C14.95 5.95834 14.8917 5.95834 14.8417 5.96667C13.6917 5.925 12.775 4.98333 12.775 3.81667C12.775 2.625 13.7333 1.66667 14.925 1.66667C16.1167 1.66667 17.075 2.63333 17.075 3.81667C17.0667 4.98333 16.15 5.925 15 5.96667Z" stroke="black" stroke-width="1.5" stroke-linecap="round" stroke-linejoin="round"/>
<path d="M14.1417 12.0333C15.2833 12.225 16.5417 12.025 17.425 11.4333C18.6 10.65 18.6 9.36667 17.425 8.58334C16.5333 7.99167 15.2583 7.79167 14.1167 7.99167" stroke="black" stroke-width="1.5" stroke-linecap="round" stroke-linejoin="round"/>
<path d="M4.975 5.96667C5.025 5.95834 5.08334 5.95834 5.13334 5.96667C6.28334 5.925 7.2 4.98333 7.2 3.81667C7.2 2.625 6.24167 1.66667 5.05 1.66667C3.85834 1.66667 2.9 2.63333 2.9 3.81667C2.90834 4.98333 3.825 5.925 4.975 5.96667Z" stroke="black" stroke-width="1.5" stroke-linecap="round" stroke-linejoin="round"/>
<path d="M5.83334 12.0333C4.69168 12.225 3.43335 12.025 2.55001 11.4333C1.37501 10.65 1.37501 9.36667 2.55001 8.58334C3.44168 7.99167 4.71668 7.79167 5.85834 7.99167" stroke="black" stroke-width="1.5" stroke-linecap="round" stroke-linejoin="round"/>
<path d="M10 12.1917C9.95001 12.1833 9.89168 12.1833 9.84168 12.1917C8.69168 12.15 7.77501 11.2083 7.77501 10.0417C7.77501 8.85 8.73334 7.89167 9.92501 7.89167C11.1167 7.89167 12.075 8.85834 12.075 10.0417C12.0667 11.2083 11.15 12.1583 10 12.1917Z" stroke="black" stroke-width="1.5" stroke-linecap="round" stroke-linejoin="round"/>
<path d="M7.57501 14.8167C6.40001 15.6 6.40001 16.8833 7.57501 17.6667C8.90834 18.5583 11.0917 18.5583 12.425 17.6667C13.6 16.8833 13.6 15.6 12.425 14.8167C11.1 13.9333 8.90834 13.9333 7.57501 14.8167Z" stroke="black" stroke-width="1.5" stroke-linecap="round" stroke-linejoin="round"/>
</svg>
