<svg width="16" height="17" viewBox="0 0 16 17" fill="none" xmlns="http://www.w3.org/2000/svg">
<path d="M8.18767 5.81438e-09C8.87965 -4.53024e-05 9.54543 0.264707 10.0484 0.739946C10.5514 1.21518 10.8535 1.86488 10.8926 2.55576L10.8968 2.70914H15.2731C15.4315 2.70918 15.584 2.76936 15.6997 2.8775C15.8155 2.98563 15.8858 3.13368 15.8966 3.29171C15.9074 3.44974 15.8578 3.60598 15.7579 3.72885C15.6579 3.85173 15.515 3.93208 15.3581 3.95367L15.2731 3.95951H14.6096L13.5426 14.8127C13.4891 15.3538 13.2451 15.8583 12.854 16.236C12.463 16.6138 11.9504 16.8403 11.4078 16.875L11.2611 16.88H5.11426C4.57031 16.88 4.0441 16.6865 3.62966 16.3342C3.21521 15.982 2.93955 15.4938 2.85192 14.9569L2.83275 14.8119L1.76493 3.95951H1.10224C0.95116 3.9595 0.805196 3.90479 0.691339 3.80549C0.577481 3.70619 0.503432 3.56902 0.482886 3.41935L0.477051 3.33432C0.477057 3.18324 0.531769 3.03728 0.631069 2.92342C0.730369 2.80957 0.867538 2.73552 1.01721 2.71497L1.10224 2.70914H5.47853C5.47853 1.99063 5.76396 1.30155 6.27202 0.793487C6.78008 0.285426 7.46916 5.81438e-09 8.18767 5.81438e-09ZM13.3534 3.95951H3.02114L4.07728 14.6894C4.10067 14.9288 4.20617 15.1527 4.37589 15.3232C4.54561 15.4937 4.76908 15.6002 5.00839 15.6246L5.11426 15.6296H11.2611C11.7612 15.6296 12.1855 15.2754 12.2822 14.7944L12.2989 14.6894L13.3525 3.95951H13.3534ZM9.64643 6.25185C9.79751 6.25186 9.94347 6.30657 10.0573 6.40587C10.1712 6.50517 10.2452 6.64234 10.2658 6.79201L10.2716 6.87704V12.7121C10.2716 12.8705 10.2114 13.023 10.1033 13.1387C9.99512 13.2545 9.84708 13.3248 9.68905 13.3356C9.53101 13.3464 9.37478 13.2968 9.2519 13.1969C9.12903 13.0969 9.04867 12.954 9.02708 12.7971L9.02125 12.7121V6.87704C9.02125 6.71123 9.08712 6.55221 9.20436 6.43496C9.32161 6.31772 9.48062 6.25185 9.64643 6.25185ZM6.7289 6.25185C6.87998 6.25186 7.02594 6.30657 7.1398 6.40587C7.25366 6.50517 7.32771 6.64234 7.34825 6.79201L7.35409 6.87704V12.7121C7.35404 12.8705 7.29387 13.023 7.18573 13.1387C7.07759 13.2545 6.92955 13.3248 6.77152 13.3356C6.61348 13.3464 6.45725 13.2968 6.33437 13.1969C6.21149 13.0969 6.13114 12.954 6.10955 12.7971L6.10372 12.7121V6.87704C6.10372 6.71123 6.16959 6.55221 6.28683 6.43496C6.40408 6.31772 6.56309 6.25185 6.7289 6.25185ZM8.18767 1.25037C7.82157 1.25038 7.46886 1.38805 7.19955 1.63605C6.93024 1.88405 6.76403 2.22424 6.7339 2.5891L6.7289 2.70914H9.64643C9.64643 2.32225 9.49274 1.9512 9.21917 1.67763C8.9456 1.40406 8.57456 1.25037 8.18767 1.25037Z" fill="#5F66E9"/>
</svg>
