<svg width="19" height="19" viewBox="0 0 19 19" fill="none" xmlns="http://www.w3.org/2000/svg">
<path d="M8.16699 1.20947H6.50033C2.33366 1.20947 0.666992 2.87614 0.666992 7.04281V12.0428C0.666992 16.2095 2.33366 17.8761 6.50033 17.8761H11.5003C15.667 17.8761 17.3337 16.2095 17.3337 12.0428V10.3761" stroke="#5F66E9" stroke-linecap="round" stroke-linejoin="round"/>
<path d="M12.3671 2.05936L5.80039 8.62602C5.55039 8.87602 5.30039 9.36769 5.25039 9.72602L4.89205 12.2344C4.75872 13.1427 5.40039 13.776 6.30872 13.651L8.81705 13.2927C9.16705 13.2427 9.65872 12.9927 9.91705 12.7427L16.4837 6.17602C17.6171 5.04269 18.1504 3.72602 16.4837 2.05936C14.8171 0.392691 13.5004 0.926024 12.3671 2.05936Z" stroke="#5F66E9" stroke-miterlimit="10" stroke-linecap="round" stroke-linejoin="round"/>
<path d="M11.4253 3.00098C11.9836 4.99264 13.542 6.55098 15.542 7.11764" stroke="#5F66E9" stroke-miterlimit="10" stroke-linecap="round" stroke-linejoin="round"/>
</svg>
