<svg width="34" height="36" viewBox="0 0 34 36" fill="none" xmlns="http://www.w3.org/2000/svg">
<path fill-rule="evenodd" clip-rule="evenodd" d="M13.8966 1.02506C14.6431 0.801113 15.4316 0.754786 16.1992 0.889775C16.9669 1.02476 17.6923 1.33733 18.3176 1.80252C18.9429 2.26772 19.4509 2.87265 19.8008 3.56905C20.1508 4.26544 20.3331 5.034 20.3333 5.81339V30.1867C20.3331 30.9661 20.1508 31.7347 19.8008 32.4311C19.4509 33.1275 18.9429 33.7324 18.3176 34.1976C17.6923 34.6628 16.9669 34.9753 16.1992 35.1103C15.4316 35.2453 14.6431 35.199 13.8966 34.9751L3.89659 31.9751C2.86675 31.6661 1.96393 31.0335 1.32205 30.1709C0.680175 29.3084 0.333428 28.2619 0.333252 27.1867V8.81339C0.333428 7.73822 0.680175 6.69174 1.32205 5.8292C1.96393 4.96665 2.86675 4.33399 3.89659 4.02506L13.8966 1.02506ZM21.9999 4.66672C21.9999 4.22469 22.1755 3.80077 22.4881 3.48821C22.8006 3.17565 23.2246 3.00006 23.6666 3.00006H28.6666C29.9927 3.00006 31.2644 3.52684 32.2021 4.46452C33.1398 5.4022 33.6666 6.67397 33.6666 8.00006V9.66672C33.6666 10.1088 33.491 10.5327 33.1784 10.8452C32.8659 11.1578 32.4419 11.3334 31.9999 11.3334C31.5579 11.3334 31.134 11.1578 30.8214 10.8452C30.5088 10.5327 30.3333 10.1088 30.3333 9.66672V8.00006C30.3333 7.55803 30.1577 7.13411 29.8451 6.82154C29.5325 6.50898 29.1086 6.33339 28.6666 6.33339H23.6666C23.2246 6.33339 22.8006 6.15779 22.4881 5.84523C22.1755 5.53267 21.9999 5.10875 21.9999 4.66672ZM31.9999 24.6667C32.4419 24.6667 32.8659 24.8423 33.1784 25.1549C33.491 25.4674 33.6666 25.8914 33.6666 26.3334V28.0001C33.6666 29.3261 33.1398 30.5979 32.2021 31.5356C31.2644 32.4733 29.9927 33.0001 28.6666 33.0001H23.6666C23.2246 33.0001 22.8006 32.8245 22.4881 32.5119C22.1755 32.1993 21.9999 31.7754 21.9999 31.3334C21.9999 30.8914 22.1755 30.4674 22.4881 30.1549C22.8006 29.8423 23.2246 29.6667 23.6666 29.6667H28.6666C29.1086 29.6667 29.5325 29.4911 29.8451 29.1786C30.1577 28.866 30.3333 28.4421 30.3333 28.0001V26.3334C30.3333 25.8914 30.5088 25.4674 30.8214 25.1549C31.134 24.8423 31.5579 24.6667 31.9999 24.6667ZM11.9999 16.3334C11.5579 16.3334 11.134 16.509 10.8214 16.8215C10.5088 17.1341 10.3333 17.558 10.3333 18.0001C10.3333 18.4421 10.5088 18.866 10.8214 19.1786C11.134 19.4911 11.5579 19.6667 11.9999 19.6667H12.0016C12.4436 19.6667 12.8675 19.4911 13.1801 19.1786C13.4927 18.866 13.6683 18.4421 13.6683 18.0001C13.6683 17.558 13.4927 17.1341 13.1801 16.8215C12.8675 16.509 12.4436 16.3334 12.0016 16.3334H11.9999Z" fill="#292D32"/>
<path d="M31.9998 18.0001L28.6665 21.3334M23.6665 18.0001H31.9998H23.6665ZM31.9998 18.0001L28.6665 14.6667L31.9998 18.0001Z" stroke="#3366FF" stroke-width="3.33333" stroke-linecap="round" stroke-linejoin="round"/>
</svg>
